HIERARCHY
ROOT hip
{
  OFFSET 0 0 0
  CHANNELS 6 Xposition Yposition Zposition Zrotation Yrotation Xrotation
  JOINT abdomen
  {
    OFFSET 0 20.6881 -0.73152
    CHANNELS 3 Zrotation Xrotation Yrotation
    JOINT chest
    {
      OFFSET 0 11.7043 -0.48768
      CHANNELS 3 Zrotation Xrotation Yrotation
      JOINT neck
      {
        OFFSET 0 22.1894 -2.19456
        CHANNELS 3 Zrotation Xrotation Yrotation
        JOINT head
        {
          OFFSET -0.24384 7.07133 1.2192
          CHANNELS 3 Zrotation Xrotation Yrotation
          JOINT leftEye
          {
            OFFSET 4.14528 8.04674 8.04672
            CHANNELS 3 Zrotation Xrotation Yrotation
            End Site
            {
              OFFSET 1 0 0
            }
          }
          JOINT rightEye
          {
            OFFSET -3.6576 8.04674 8.04672
            CHANNELS 3 Zrotation Xrotation Yrotation
            End Site
            {
              OFFSET 1 0 0
            }
          }
        }
      }
      JOINT rCollar
      {
        OFFSET -2.68224 19.2634 -4.8768
        CHANNELS 3 Zrotation Xrotation Yrotation
        JOINT rShldr
        {
          OFFSET -8.77824 -1.95073 1.46304
          CHANNELS 3 Zrotation Xrotation Yrotation
          JOINT rForeArm
          {
            OFFSET -28.1742 -1.7115 0.48768
            CHANNELS 3 Zrotation Xrotation Yrotation
            JOINT rHand
            {
              OFFSET -22.5879 0.773209 7.07136
              CHANNELS 3 Zrotation Xrotation Yrotation
              JOINT rThumb1
              {
                OFFSET -1.2192 -0.487915 3.41376
                CHANNELS 3 Zrotation Xrotation Yrotation
                JOINT rThumb2
                {
                  OFFSET -3.37035 -0.52449 3.41376
                  CHANNELS 3 Zrotation Xrotation Yrotation
                  End Site
                  {
                    OFFSET -1.78271 -1.18214 1.43049
                  }
                }
              }
              JOINT rIndex1
              {
                OFFSET -7.75947 0.938293 5.60832
                CHANNELS 3 Zrotation Xrotation Yrotation
                JOINT rIndex2
                {
                  OFFSET -2.54057 -0.884171 1.56538
                  CHANNELS 3 Zrotation Xrotation Yrotation
                  End Site
                  {
                    OFFSET -1.62519 -0.234802 1.16502
                  }
                }
              }
              JOINT rMid1
              {
                OFFSET -8.24714 1.18213 3.41376
                CHANNELS 3 Zrotation Xrotation Yrotation
                JOINT rMid2
                {
                  OFFSET -3.10165 -0.590103 1.0647
                  CHANNELS 3 Zrotation Xrotation Yrotation
                  End Site
                  {
                    OFFSET -2.48547 -0.328903 0.83742
                  }
                }
              }
              JOINT rRing1
              {
                OFFSET -8.82822 0.546677 1.51678
                CHANNELS 3 Zrotation Xrotation Yrotation
                JOINT rRing2
                {
                  OFFSET -2.60934 -0.819778 -0.0198488
                  CHANNELS 3 Zrotation Xrotation Yrotation
                  End Site
                  {
                    OFFSET -2.33842 -0.294052 0.168128
                  }
                }
              }
              JOINT rPinky1
              {
                OFFSET -8.27202 -0.0477905 -0.4584
                CHANNELS 3 Zrotation Xrotation Yrotation
                JOINT rPinky2
                {
                  OFFSET -1.82734 -0.647385 -0.700984
                  CHANNELS 3 Zrotation Xrotation Yrotation
                  End Site
                  {
                    OFFSET -1.69225 -0.51767 -0.607171
                  }
                }
              }
            }
          }
        }
      }
      JOINT lCollar
      {
        OFFSET 2.68224 19.2634 -4.8768
        CHANNELS 3 Zrotation Xrotation Yrotation
        JOINT lShldr
        {
          OFFSET 8.77824 -1.95073 1.46304
          CHANNELS 3 Zrotation Xrotation Yrotation
          JOINT lForeArm
          {
            OFFSET 28.1742 -1.7115 0.48768
            CHANNELS 3 Zrotation Xrotation Yrotation
            JOINT lHand
            {
              OFFSET 22.5879 0.773209 7.07136
              CHANNELS 3 Zrotation Xrotation Yrotation
              JOINT lThumb1
              {
                OFFSET 1.2192 -0.487915 3.41376
                CHANNELS 3 Zrotation Xrotation Yrotation
                JOINT lThumb2
                {
                  OFFSET 3.37035 -0.52449 3.41376
                  CHANNELS 3 Zrotation Xrotation Yrotation
                  End Site
                  {
                    OFFSET 1.78271 -1.18214 1.43049
                  }
                }
              }
              JOINT lIndex1
              {
                OFFSET 7.75947 0.938293 5.60832
                CHANNELS 3 Zrotation Xrotation Yrotation
                JOINT lIndex2
                {
                  OFFSET 2.54057 -0.884171 1.56538
                  CHANNELS 3 Zrotation Xrotation Yrotation
                  End Site
                  {
                    OFFSET 1.62519 -0.234802 1.16502
                  }
                }
              }
              JOINT lMid1
              {
                OFFSET 8.24714 1.18213 3.41376
                CHANNELS 3 Zrotation Xrotation Yrotation
                JOINT lMid2
                {
                  OFFSET 3.10165 -0.590103 1.0647
                  CHANNELS 3 Zrotation Xrotation Yrotation
                  End Site
                  {
                    OFFSET 2.48547 -0.328903 0.83742
                  }
                }
              }
              JOINT lRing1
              {
                OFFSET 8.82822 0.546677 1.51678
                CHANNELS 3 Zrotation Xrotation Yrotation
                JOINT lRing2
                {
                  OFFSET 2.60934 -0.819778 -0.0198488
                  CHANNELS 3 Zrotation Xrotation Yrotation
                  End Site
                  {
                    OFFSET 2.33842 -0.294052 0.168128
                  }
                }
              }
              JOINT lPinky1
              {
                OFFSET 8.27202 -0.0477905 -0.4584
                CHANNELS 3 Zrotation Xrotation Yrotation
                JOINT lPinky2
                {
                  OFFSET 1.82734 -0.647385 -0.700984
                  CHANNELS 3 Zrotation Xrotation Yrotation
                  End Site
                  {
                    OFFSET 1.69225 -0.51767 -0.607171
                  }
                }
              }
            }
          }
        }
      }
    }
  }
  JOINT rButtock
  {
    OFFSET -8.77824 4.35084 1.2192
    CHANNELS 3 Zrotation Xrotation Yrotation
    JOINT rThigh
    {
      OFFSET 0 -1.70687 -2.19456
      CHANNELS 3 Zrotation Xrotation Yrotation
      JOINT rShin
      {
        OFFSET 0 -36.8199 0.73152
        CHANNELS 3 Zrotation Xrotation Yrotation
        JOINT rFoot
        {
          OFFSET 0.73152 -45.1104 -5.12064
          CHANNELS 3 Zrotation Xrotation Yrotation
          End Site
          {
            OFFSET -1.1221 -3.69964 12.103
          }
        }
      }
    }
  }
  JOINT lButtock
  {
    OFFSET 8.77824 4.35084 1.2192
    CHANNELS 3 Zrotation Xrotation Yrotation
    JOINT lThigh
    {
      OFFSET 0 -1.70687 -2.19456
      CHANNELS 3 Zrotation Xrotation Yrotation
      JOINT lShin
      {
        OFFSET 0 -36.8199 0.73152
        CHANNELS 3 Zrotation Xrotation Yrotation
        JOINT lFoot
        {
          OFFSET -0.73152 -45.1104 -5.12064
          CHANNELS 3 Zrotation Xrotation Yrotation
          End Site
          {
            OFFSET 1.1221 -3.69964 12.103
          }
        }
      }
    }
  }
}
MOTION
Frames:	4
Frame Time:	0.03333
-10.452194511890411 33.73289704322815 21.42473622225225 -2.6833601975236308 0.0021548112913266303 0.6493252202996319 -0.9951371110079957 5.90079081549713 1.1835648480140168 1.9616958567550118 -2.966355852291592 1.5237268382574578 -1.5445490968290647 6.803598816687068 -0.21630056507007941 2.490680987924394 -9.5211641746873 -1.619976156493985 -0.9843351668356206 0.9241973789060681 0.2939279061430958 -0.39752773522617313 -0.03673980098891015 -1.1765952802962534 -0.7424263015764593 0.4184875047156795 -0.3703424617516117 15.899758312251732 9.375726395369279 6.852606277755556 -8.867381882428264 -12.442284964766367 22.091324794868292 -2.3426127320022725 -3.544893365559182 -0.6462210594044199 -0.901193408503171 0.9265124928695851 -0.4579506301927207 0.8657500627960939 -0.7347105356918721 -0.785601368063138 1.6028116776663313 -1.07272934063981 -0.8699602340891721 4.188213088670228 1.5993415146811416 -0.03376034440690365 -1.3266927427321034 -1.3508837786684076 0.40628414446383526 1.8888945779391384 0.013986199707776266 0.673727832017648 0.7563392901940694 -0.2978640427761536 -0.8822185560194937 3.781874889662414 0.7164379653930897 -0.5478938695563278 0.33142623165584756 -0.6072610200484324 -0.5926741372196652 -1.0235838884057469 -0.6016672018398977 0.28873178637115565 -0.7949800182063588 0.7678220121276245 0.10451776915493008 -18.10498050843873 10.27256096924322 -8.242955743221943 8.514422465557747 -12.126872805310702 -20.89729673737605 0.9518120471638413 -4.322390447367836 2.7891401909732645 0.5728349456408641 0.022731509888037123 -2.2265407106904878 -1.1909647176494909 0.0658344858624604 0.47326957056229574 -0.8524075016958855 0.42810262347848566 0.06698958824498592 -3.49388593972435 2.843258341088214 0.4656483601090309 -0.14102435653628131 0.7818517009305067 -1.2878828608161503 -0.028156200873334633 0.2586102786054292 0.5306876625417137 0.052495099732999054 1.0933087006090585 0.6489582043534495 -2.2158521049696525 0.5381226436183899 0.761542506959444 1.8137166067355122 0.1927839035926082 0.05378523175376455 -0.5135439410858346 -0.1050655983511327 -0.5602790302339709 -1.0492805541672157 0.8743448953712029 -1.5540685662630642 -10.95538693340044 -14.074327931089648 -9.203307661282416 -2.707687837243335 20.577351893632436 1.1259186917493438 -0.660434362902099 -3.2610418027108534 -3.8452159295909967 0.91266439104909 -0.21199733244955984 -0.3780141248912847 11.774006449767626 -12.208383429091988 10.605504516751013 0.2008353892831574 20.432797770038285 -1.0334276851036162 3.2663072382306986 -2.937829140336211 4.370024613526327
-10.608840640634298 33.69758725166321 21.91565427929163 -2.686296751979913 -0.0025532167592220026 0.648910179585848 -0.9838400848425004 5.896725999167326 1.183032413423873 1.958184285747979 -2.9902021771182223 1.5157043541904547 -1.5341681697859975 6.783025433133344 -0.221332867023645 2.493078811209892 -9.51727608950227 -1.6156742045339347 -0.9762242104745247 0.9203100407729788 0.29633448060846745 -0.3821348900753445 -0.04046694984162148 -1.1787620510887342 -0.72733211711926 0.4165841230930674 -0.3618971462863025 15.866934130647945 9.37570590480177 6.841562288754468 -8.835752983929227 -12.406331702749066 22.035754375781067 -2.34389744789647 -3.558759503347954 -0.6484469006610506 -0.8948741494995869 0.9302374005664751 -0.4609735758698332 0.8809333598776207 -0.7225531191343667 -0.7622001794713222 1.5879233593795845 -1.0766679051916743 -0.8663757721570905 4.18002198430809 1.5754130141410598 -0.022176877183090932 -1.3134989516897544 -1.3514137586593182 0.4140769100591438 1.8837789796942106 0.020287582825641935 0.6642475294496702 0.7607428412180236 -0.29601340835662393 -0.8803818754629951 3.770099643533312 0.7176985621817802 -0.5664268941780699 0.330941848513732 -0.5906727850711457 -0.5794881368618383 -1.020070930016539 -0.59379839702922 0.2806816347019287 -0.7872252988991614 0.7708204651732601 0.09981248918830532 -18.058164684320168 10.262027963769413 -8.217864189532255 8.496180737831935 -12.10700463878878 -20.87040115997183 0.9634065067233495 -4.316807194608173 2.7929117360555806 0.5770409547874168 0.030069347532025784 -2.1993885743055714 -1.1785878812648989 0.07871430164640039 0.46799058138581634 -0.8287932432184771 0.42117094196627475 0.06161572347206683 -3.4733614347118733 2.8378185223011223 0.45956639681825184 -0.1265834156401703 0.7859407430875229 -1.3003755969732211 -0.019181465706070107 0.25982850687692444 0.5197923368767797 0.049107139141687614 1.0831461261760198 0.6462050511485526 -2.212464331141326 0.5506041739963535 0.7492295968766152 1.8180083134118075 0.19196097251932742 0.035714472200614876 -0.5090687264364482 -0.10792179136296164 -0.5575309463100985 -1.0517826445592617 0.8584411200539456 -1.5539299347672542 -10.939277078469319 -14.06158194432476 -9.190090391464796 -2.698176371937269 20.55266758997201 1.1228805382291576 -0.637844899604457 -3.248561766436771 -3.8418627335953435 0.9406962344547629 -0.2222285289394158 -0.37980310084529917 11.756454571147986 -12.185503149146092 10.580239647011137 0.19126984275268677 20.397905748663273 -1.0304032986834757 3.2780577249240594 -2.9277225947987073 4.357390471109096
-10.773879941552877 33.689481019973755 22.396870562806726 -2.6737522557955384 -0.0007344387688680996 0.6567126568563826 -0.9706207873124697 5.897391088837756 1.1871590216213244 1.9569960462758085 -2.984787544653695 1.5233405056825289 -1.5302368623101261 6.766688047525496 -0.21732578713666892 2.484236277555664 -9.503590951726503 -1.6178122671875603 -0.9866046039090631 0.9224943139252078 0.29889836286816096 -0.37267902677799075 -0.03278458785094386 -1.1800660836116776 -0.719579638967884 0.4207623845961169 -0.35542885042059463 15.8642566964933 9.375372933079731 6.828196889209223 -8.8319553987507 -12.401568499576628 22.033094017099348 -2.3346158611446572 -3.547748171188836 -0.6534102603926814 -0.900548382513428 0.9310875456747301 -0.4506931806736119 0.8813725196969113 -0.7248156726577863 -0.7657984085034496 1.5884076624804206 -1.0767898881013827 -0.8577461483058968 4.177042314282672 1.5806275434072472 -0.03344829013919869 -1.3139290401640535 -1.3492912773747368 0.4140375297497105 1.881055441762668 0.011360098693612146 0.6616471483665994 0.7659973911238791 -0.30266905417683115 -0.8809946181367392 3.765814126715952 0.7096688210387839 -0.576836742803404 0.3310875503225501 -0.5957642642105672 -0.5756570410676959 -1.0193630449420905 -0.5942501500097929 0.28137497894396435 -0.7860873253504138 0.7686625522823592 0.11121015392235253 -18.06313706203594 10.259217340925952 -8.212319783473497 8.479581670601512 -12.100036992061721 -20.874666613108506 0.9621116522671032 -4.321412876542878 2.7907760212794823 0.58195378179136 0.027203282762412073 -2.19653270145886 -1.172701645582523 0.08480939170699052 0.4736549426418725 -0.8389910891752764 0.4199286479501258 0.05043454371819728 -3.4709552871333247 2.8361942179391284 0.4607795558087225 -0.12651297931435454 0.787380739063632 -1.300810167759163 -0.020489793777671336 0.26292909259499286 0.5165470365256717 0.04491487041475428 1.089952623127349 0.640351899194969 -2.213431656682529 0.5459536689452211 0.742097331918388 1.8190825741022034 0.19327007432329557 0.039185702402862295 -0.5084802095899164 -0.10006643348721228 -0.560129032876495 -1.0515528727267143 0.856179046778202 -1.5545270427111013 -10.933518375225352 -14.052806005014938 -9.185980325131741 -2.69951487557118 20.547394683932758 1.1329792930821387 -0.6275103965034046 -3.2498119044982947 -3.8329881834293813 0.9462791670493078 -0.2266928046139596 -0.3748826432393925 11.756837061741505 -12.18216660173654 10.571992193588347 0.19828324641109982 20.38624490820277 -1.0284833751964675 3.2704661831050017 -2.9420171135144866 4.361769903027544
-10.940924566239119 33.70473384857178 22.864622715860605 -2.654662303952176 0.006024673745094206 0.6639060733520225 -0.9620263816241837 5.9030242873557235 1.1933187850356182 1.9572357432269936 -2.962221880296442 1.53914577686535 -1.5322718317959667 6.762852042532888 -0.20964668015801763 2.4715498415026 -9.492385172619452 -1.6205502125493834 -1.0041242525735574 0.9286587730945559 0.30030495495036047 -0.3725461582542928 -0.019793247884462264 -1.1791192486379847 -0.7217468366471879 0.4255755335268603 -0.3545091227601701 15.885285141400475 9.374578923588718 6.819061938081154 -8.848715829200266 -12.420664854722338 22.06846415171626 -2.324132801429157 -3.527389298263732 -0.6560972461399939 -0.9112755147700503 0.9316638428859499 -0.4385051349865473 0.8728933200900165 -0.7353425416335098 -0.7867271753374264 1.5981611726151987 -1.0789189861317225 -0.8474830420260121 4.178828835637453 1.6008905802405595 -0.054231808731607024 -1.3237961021937832 -1.344035019921589 0.4081982516178784 1.881970473668038 -0.0025921635117256204 0.6622115994684775 0.7674859454761187 -0.3114729012127131 -0.8840643612818369 3.771181374743113 0.6999067731675432 -0.5782961087691124 0.33247898792252867 -0.6137473518824174 -0.5808216245755775 -1.0222371672004906 -0.59908976592357 0.2851057029738194 -0.7876164339508503 0.7633114192327716 0.12838575848783385 -18.103906461191745 10.2660850961364 -8.22166262848443 8.473121165420325 -12.106006577396313 -20.89885231295952 0.9544413498291788 -4.329909631870374 2.78494965647405 0.5820491909963287 0.018294715052732044 -2.2147983348467664 -1.1733942694530446 0.08214198939268898 0.4837182125276814 -0.8660870899429517 0.4231622089135979 0.038118111819077566 -3.4840094861845117 2.8378148937631256 0.46532611391842377 -0.1351184840600417 0.784565153660853 -1.2922032756313009 -0.027879711614081343 0.262787899778244 0.5200989483374898 0.043021093745662466 1.10373252977785 0.636488893610798 -2.2180787466390766 0.5289018882388727 0.7434073942177082 1.8173184643056361 0.1954186490649406 0.05559832681328559 -0.5108557813997585 -0.09000172285837536 -0.5661592895008228 -1.05002269690922 0.8642603878659435 -1.5576805623952374 -10.93932488979351 -14.052662571042369 -9.19124640098182 -2.707671828987468 20.558101005456756 1.1473669798470647 -0.630331157908914 -3.2606546163622783 -3.8229029822330345 0.933192738042975 -0.22607584643283704 -0.36743597613593326 11.768190543689359 -12.194250913925584 10.581721798061029 0.21122760214661113 20.39708271086829 -1.026829082035149 3.2532543198399813 -2.9669088841709517 4.37553828373382
